##       ##    ## ########   ######   
##       ##   ##  ##     ## ##    ##  
##       ##  ##   ##     ## ##        
##       #####    ########  ##   #### 
##       ##  ##   ##   ##   ##    ##  
##       ##   ##  ##    ##  ##    ##  
######## ##    ## ##     ##  ######   


Title: The Scientist 2010 DVDRip Xvid LKRG
Format;AVI
File Size:1.01gb

Video
ID : 0
Format : MPEG-4 Visual
Format profile : Advanced Simple@L5
Format settings, BVOP : Yes
Format settings, QPel : No
Format settings, GMC : No warppoints
Format settings, Matrix : Default (H.263)
Codec ID : XVID
Codec ID/Hint : XviD
Duration : 1h 27mn
Bit rate : 1 255 Kbps
Width : 640 pixels
Height : 368 pixels
Display aspect ratio : 16:9
Frame rate : 23.976 fps
Color space : YUV
Chroma subsampling : 4:2:0
Bit depth : 8 bits
Scan type : Progressive
Bits/(Pixel*Frame) : 0.222
Stream size : 787 MiB (76%)
Writing library : XviD 1.2.1 (UTC 2008-12-04)

Audio
ID : 1
Format : AC-3
Format/Info : Audio Coding 3
Mode extension : CM (complete main)
Codec ID : 2000
Duration : 1h 27mn
Bit rate mode : Constant
Bit rate : 384 Kbps
Channel(s) : 6 channels
Channel positions : Front: L C R, Side: L R, LFE
Sampling rate : 48.0 KHz
Bit depth : 16 bits
Stream size : 241 MiB (23%)
Alignment : Aligned on interleaves
Interleave, duration : 32 ms (0.77 video frame)


Duration:1:09
Release Date:2011
Language:English

IMDB: 
http://www.imdb.com/title/tt1311087/

Plot:

The Scientist follows a brilliant physicist, Dr. Marcus Ryan (Bill Sage), who anguishes over the tragic death of his wife and daughter while secretly constructing a mysterious energy generator in his basement. The multi-dimensional energy unleashed by the machine triggers a series of events that propels Ryan toward a higher level of consciousness.







================================== 
http://thepiratebay.org/user/hiest
==================================







Screen Shots:
 
http://shotpix.com/images/81410215263512072711.png
 
http://shotpix.com/images/89093145128132536437.png
 
http://shotpix.com/images/87953779079073621672.png
 
http://shotpix.com/images/73878833341096454151.png
 
http://shotpix.com/images/38114486800888427876.png
 
http://shotpix.com/images/71260348194138851740.png


##       ##    ## ########   ######   
##       ##   ##  ##     ## ##    ##  
##       ##  ##   ##     ## ##        
##       #####    ########  ##   #### 
##       ##  ##   ##   ##   ##    ##  
##       ##   ##  ##    ##  ##    ##  
######## ##    ## ##     ##  ######   